<?xml version="1.0" encoding="utf-8"?>
<!-- Generator: Adobe Illustrator 16.0.4, SVG Export Plug-In . SVG Version: 6.00 Build 0)  -->
<!DOCTYPE svg PUBLIC "-//W3C//DTD SVG 1.1//EN" "http://www.w3.org/Graphics/SVG/1.1/DTD/svg11.dtd">
<svg version="1.1" id="Layer_1" xmlns="http://www.w3.org/2000/svg" xmlns:xlink="http://www.w3.org/1999/xlink" x="0px" y="0px" viewBox="0 0 512 512" xml:space="preserve" fill="#3498db">
	<g id="Forma_1">
		<path d="M489.814,425.404h-47.516L285.278,267.896c-1.449-11.789-5.541-22.77-11.664-32.327l75.426-57.658h64.153
			c8.442,0,15.783-5.791,17.758-14.005l8.027-33.347c2.357-9.821-3.677-19.698-13.485-22.062
			c-9.812-2.367-19.675,3.678-22.035,13.495l-4.654,19.344h-37.671v-37.715l19.32-4.659c9.808-2.365,15.843-12.245,13.479-22.063
			c-2.362-9.817-12.229-15.861-22.038-13.496l-33.312,8.036c-8.201,1.979-13.986,9.328-13.986,17.779v61.36L246.861,210
			c-11.421-6.599-24.653-10.4-38.764-10.4c-42.896,0-77.792,34.934-77.792,77.88c0,40.23,30.631,73.432,69.776,77.464l70.384,70.461
			h-55.072c-6.725,0-12.178,5.458-12.178,12.191v21.944c0,6.731,5.453,12.191,12.178,12.191h274.42c6.729,0,12.18-5.46,12.18-12.191
			v-21.944C501.994,430.862,496.544,425.404,489.814,425.404z M208.099,309.327c-17.543,0-31.813-14.291-31.813-31.848
			c0-17.565,14.27-31.85,31.813-31.85c17.541,0,31.815,14.284,31.815,31.85C239.914,295.036,225.64,309.327,208.099,309.327z
			 M322.135,425.404l-78.563-78.654c14.747-7.597,26.764-19.768,34.174-34.637l112.935,113.291H322.135z"/>
		<ellipse cx="208.252" cy="277.975" rx="20.511" ry="20.522"/>
		<path d="M493.161,424.934H18.838c-4.877,0-8.832,3.68-8.832,8.213v30.377c0,4.534,3.955,8.208,8.832,8.208h474.323
			c4.878,0,8.833-3.674,8.833-8.208v-30.377C501.994,428.613,498.039,424.934,493.161,424.934z"/>
		<rect x="130.305" y="85.038" width="36.923" height="340.721"/>
		<rect x="49.895" y="85.038" width="36.924" height="340.721"/>
		<path d="M200.568,39.859H17.689c-4.244,0-7.683,4.79-7.683,10.698v24.604c0,5.906,3.439,10.697,7.683,10.697h182.879
			c4.245,0,7.686-4.791,7.686-10.697V50.557C208.254,44.649,204.813,39.859,200.568,39.859z"/>
		<rect x="248.458" y="373.21" width="106.666" height="12.316"/>
		<rect x="292.931" y="412.605" transform="matrix(0.0023 -1 1 0.0023 -73.2707 764.0797)" width="106.733" height="12.312"/>
		<rect x="217.442" y="325.579" transform="matrix(0.0023 -1 1 0.0023 -61.5498 601.7769)" width="106.733" height="12.312"/>
		<polygon points="65.799,315.571 57.098,324.278 132.522,399.752 141.225,391.038 		"/>
		<polygon points="136.251,374.995 60.649,450.285 69.333,459.016 144.933,383.723 		"/>
		<polygon points="144.374,260.046 68.774,335.34 77.456,344.066 153.056,268.774 		"/>
		<polygon points="77.286,212.946 68.583,221.654 144.008,297.123 152.711,288.415 		"/>
		<polygon points="71.542,99.646 62.841,108.355 138.265,183.825 146.967,175.116 		"/>
		<polygon points="141.995,159.067 66.394,234.361 75.076,243.09 150.676,167.795 		"/>
		<polygon points="142.228,53.024 74.516,119.971 82.292,127.731 150.003,60.785 		"/>
	</g>
</svg>